# xmcd CD database file
#
# Track frame offsets:
#	150
#	14697
#	28245
#	47897
#	75689
#	87342
#	107681
#	133756
#	165466
#	179985
#
# Disc length: 2699 seconds
#
# Revision: 0
# Processed by: cddbd v1.5.2PL0 Copyright (c) Steve Scherf et al.
# Submitted via: CDex 1.70beta2
#
DISCID=890a890a
DTITLE=Herbie Mann - Star-Collection LP (Plus Bonus)
DYEAR=1972
DGENRE=Jazz
TTITLE0=Swinging Shepherd Blues
TTITLE1=Monday Monday
TTITLE2=The Mooch
TTITLE3=There's A Mountain
TTITLE4=Scratch
TTITLE5=Desafinado
TTITLE6=If I Were A Carpenter
TTITLE7=I Got A Woman
TTITLE8=Right Now
TTITLE9=Turkish Coffee
EXTD=YEAR: 1972
EXTT0=
EXTT1=
EXTT2=
EXTT3=
EXTT4=
EXTT5=
EXTT6=
EXTT7=
EXTT8=
EXTT9=
PLAYORDER=
